<mxfile host="app.diagrams.net" agent="Mozilla/5.0 (Windows NT 10.0; Win64; x64) AppleWebKit/537.36 (KHTML, like Gecko) Chrome/127.0.0.0 Safari/537.36" version="24.7.7">
  <diagram id="R2lEEEUBdFMjLlhIrx00" name="Page-1">
    <mxGraphModel dx="1224" dy="453" grid="1" gridSize="10" guides="1" tooltips="1" connect="1" arrows="1" fold="1" page="1" pageScale="1" pageWidth="850" pageHeight="1100" math="0" shadow="0" extFonts="Permanent Marker^https://fonts.googleapis.com/css?family=Permanent+Marker">
      <root>
        <mxCell id="0" />
        <mxCell id="1" parent="0" />
        <mxCell id="Gn8FA4IbTsDNjonJkFPs-64" style="edgeStyle=orthogonalEdgeStyle;rounded=0;orthogonalLoop=1;jettySize=auto;html=1;exitX=0;exitY=0.5;exitDx=0;exitDy=0;entryX=0.5;entryY=1;entryDx=0;entryDy=0;" edge="1" parent="1" source="Gn8FA4IbTsDNjonJkFPs-12" target="Gn8FA4IbTsDNjonJkFPs-61">
          <mxGeometry relative="1" as="geometry" />
        </mxCell>
        <mxCell id="Gn8FA4IbTsDNjonJkFPs-12" value="user_id" style="whiteSpace=wrap;html=1;align=center;fontStyle=4" vertex="1" parent="1">
          <mxGeometry x="80" y="320" width="120" height="40" as="geometry" />
        </mxCell>
        <mxCell id="Gn8FA4IbTsDNjonJkFPs-13" value="w_date" style="whiteSpace=wrap;html=1;align=center;" vertex="1" parent="1">
          <mxGeometry x="200" y="320" width="120" height="40" as="geometry" />
        </mxCell>
        <mxCell id="Gn8FA4IbTsDNjonJkFPs-14" value="non_bio_weight" style="whiteSpace=wrap;html=1;align=center;" vertex="1" parent="1">
          <mxGeometry x="320" y="320" width="120" height="40" as="geometry" />
        </mxCell>
        <mxCell id="Gn8FA4IbTsDNjonJkFPs-15" value="bio_weight" style="whiteSpace=wrap;html=1;align=center;" vertex="1" parent="1">
          <mxGeometry x="440" y="320" width="80" height="40" as="geometry" />
        </mxCell>
        <mxCell id="Gn8FA4IbTsDNjonJkFPs-16" value="total_waste_per_day" style="whiteSpace=wrap;html=1;align=center;" vertex="1" parent="1">
          <mxGeometry x="520" y="320" width="160" height="40" as="geometry" />
        </mxCell>
        <mxCell id="Gn8FA4IbTsDNjonJkFPs-17" value="area_id" style="whiteSpace=wrap;html=1;align=center;fontStyle=4" vertex="1" parent="1">
          <mxGeometry x="70" y="440" width="120" height="40" as="geometry" />
        </mxCell>
        <mxCell id="Gn8FA4IbTsDNjonJkFPs-18" value="name&lt;span style=&quot;white-space: pre;&quot;&gt;&#x9;&lt;/span&gt;" style="whiteSpace=wrap;html=1;align=center;" vertex="1" parent="1">
          <mxGeometry x="190" y="440" width="122.5" height="40" as="geometry" />
        </mxCell>
        <mxCell id="Gn8FA4IbTsDNjonJkFPs-19" value="longitude" style="whiteSpace=wrap;html=1;align=center;" vertex="1" parent="1">
          <mxGeometry x="310" y="440" width="120" height="40" as="geometry" />
        </mxCell>
        <mxCell id="Gn8FA4IbTsDNjonJkFPs-20" value="latitude" style="whiteSpace=wrap;html=1;align=center;" vertex="1" parent="1">
          <mxGeometry x="430" y="440" width="120" height="40" as="geometry" />
        </mxCell>
        <mxCell id="Gn8FA4IbTsDNjonJkFPs-22" value="compliant_id" style="whiteSpace=wrap;html=1;align=center;fontStyle=4" vertex="1" parent="1">
          <mxGeometry x="80" y="40" width="80" height="40" as="geometry" />
        </mxCell>
        <mxCell id="Gn8FA4IbTsDNjonJkFPs-23" value="message" style="whiteSpace=wrap;html=1;align=center;" vertex="1" parent="1">
          <mxGeometry x="160" y="40" width="70" height="40" as="geometry" />
        </mxCell>
        <mxCell id="Gn8FA4IbTsDNjonJkFPs-24" value="image" style="whiteSpace=wrap;html=1;align=center;" vertex="1" parent="1">
          <mxGeometry x="230" y="40" width="60" height="40" as="geometry" />
        </mxCell>
        <mxCell id="Gn8FA4IbTsDNjonJkFPs-25" value="c_date" style="whiteSpace=wrap;html=1;align=center;" vertex="1" parent="1">
          <mxGeometry x="290" y="40" width="55" height="40" as="geometry" />
        </mxCell>
        <mxCell id="Gn8FA4IbTsDNjonJkFPs-26" value="c_time" style="whiteSpace=wrap;html=1;align=center;" vertex="1" parent="1">
          <mxGeometry x="345" y="40" width="80" height="40" as="geometry" />
        </mxCell>
        <mxCell id="Gn8FA4IbTsDNjonJkFPs-27" value="c_date" style="whiteSpace=wrap;html=1;align=center;" vertex="1" parent="1">
          <mxGeometry x="80" y="600" width="120" height="40" as="geometry" />
        </mxCell>
        <mxCell id="Gn8FA4IbTsDNjonJkFPs-68" style="edgeStyle=orthogonalEdgeStyle;rounded=0;orthogonalLoop=1;jettySize=auto;html=1;exitX=0.5;exitY=1;exitDx=0;exitDy=0;entryX=0.5;entryY=1;entryDx=0;entryDy=0;" edge="1" parent="1" source="Gn8FA4IbTsDNjonJkFPs-28" target="Gn8FA4IbTsDNjonJkFPs-17">
          <mxGeometry relative="1" as="geometry">
            <Array as="points">
              <mxPoint x="260" y="660" />
              <mxPoint x="60" y="660" />
              <mxPoint x="60" y="500" />
              <mxPoint x="130" y="500" />
            </Array>
          </mxGeometry>
        </mxCell>
        <mxCell id="Gn8FA4IbTsDNjonJkFPs-28" value="area_id" style="whiteSpace=wrap;html=1;align=center;" vertex="1" parent="1">
          <mxGeometry x="200" y="600" width="120" height="40" as="geometry" />
        </mxCell>
        <mxCell id="Gn8FA4IbTsDNjonJkFPs-29" value="c_time" style="whiteSpace=wrap;html=1;align=center;" vertex="1" parent="1">
          <mxGeometry x="320" y="600" width="120" height="40" as="geometry" />
        </mxCell>
        <mxCell id="Gn8FA4IbTsDNjonJkFPs-66" style="edgeStyle=orthogonalEdgeStyle;rounded=0;orthogonalLoop=1;jettySize=auto;html=1;exitX=0.5;exitY=1;exitDx=0;exitDy=0;entryX=0.5;entryY=0;entryDx=0;entryDy=0;" edge="1" parent="1" source="Gn8FA4IbTsDNjonJkFPs-30" target="Gn8FA4IbTsDNjonJkFPs-32">
          <mxGeometry relative="1" as="geometry" />
        </mxCell>
        <mxCell id="Gn8FA4IbTsDNjonJkFPs-30" value="vehicle_id" style="whiteSpace=wrap;html=1;align=center;" vertex="1" parent="1">
          <mxGeometry x="440" y="600" width="120" height="40" as="geometry" />
        </mxCell>
        <mxCell id="Gn8FA4IbTsDNjonJkFPs-32" value="vehicle_id" style="whiteSpace=wrap;html=1;align=center;fontStyle=4" vertex="1" parent="1">
          <mxGeometry x="80" y="760" width="120" height="40" as="geometry" />
        </mxCell>
        <mxCell id="Gn8FA4IbTsDNjonJkFPs-33" value="driver_name" style="whiteSpace=wrap;html=1;align=center;" vertex="1" parent="1">
          <mxGeometry x="200" y="760" width="120" height="40" as="geometry" />
        </mxCell>
        <mxCell id="Gn8FA4IbTsDNjonJkFPs-34" value="driver_phone" style="whiteSpace=wrap;html=1;align=center;" vertex="1" parent="1">
          <mxGeometry x="320" y="760" width="120" height="40" as="geometry" />
        </mxCell>
        <mxCell id="Gn8FA4IbTsDNjonJkFPs-35" value="area_id" style="whiteSpace=wrap;html=1;align=center;" vertex="1" parent="1">
          <mxGeometry x="440" y="760" width="120" height="40" as="geometry" />
        </mxCell>
        <mxCell id="Gn8FA4IbTsDNjonJkFPs-37" value="u_name" style="whiteSpace=wrap;html=1;align=center;fontStyle=0" vertex="1" parent="1">
          <mxGeometry x="150" y="160" width="60" height="40" as="geometry" />
        </mxCell>
        <mxCell id="Gn8FA4IbTsDNjonJkFPs-38" value="email_id" style="whiteSpace=wrap;html=1;align=center;" vertex="1" parent="1">
          <mxGeometry x="210" y="160" width="60" height="40" as="geometry" />
        </mxCell>
        <mxCell id="Gn8FA4IbTsDNjonJkFPs-39" value="gender" style="whiteSpace=wrap;html=1;align=center;" vertex="1" parent="1">
          <mxGeometry x="270" y="160" width="60" height="40" as="geometry" />
        </mxCell>
        <mxCell id="Gn8FA4IbTsDNjonJkFPs-40" value="age" style="whiteSpace=wrap;html=1;align=center;" vertex="1" parent="1">
          <mxGeometry x="330" y="160" width="40" height="40" as="geometry" />
        </mxCell>
        <mxCell id="Gn8FA4IbTsDNjonJkFPs-41" value="occupation" style="whiteSpace=wrap;html=1;align=center;" vertex="1" parent="1">
          <mxGeometry x="370" y="160" width="70" height="40" as="geometry" />
        </mxCell>
        <mxCell id="Gn8FA4IbTsDNjonJkFPs-42" value="user" style="text;html=1;align=center;verticalAlign=middle;whiteSpace=wrap;rounded=0;" vertex="1" parent="1">
          <mxGeometry x="80" y="130" width="60" height="30" as="geometry" />
        </mxCell>
        <mxCell id="Gn8FA4IbTsDNjonJkFPs-43" value="complaint" style="text;html=1;align=center;verticalAlign=middle;whiteSpace=wrap;rounded=0;" vertex="1" parent="1">
          <mxGeometry x="80" y="10" width="60" height="30" as="geometry" />
        </mxCell>
        <mxCell id="Gn8FA4IbTsDNjonJkFPs-44" value="waste_collection" style="text;html=1;align=center;verticalAlign=middle;whiteSpace=wrap;rounded=0;" vertex="1" parent="1">
          <mxGeometry x="80" y="570" width="120" height="30" as="geometry" />
        </mxCell>
        <mxCell id="Gn8FA4IbTsDNjonJkFPs-45" value="area" style="text;html=1;align=center;verticalAlign=middle;whiteSpace=wrap;rounded=0;" vertex="1" parent="1">
          <mxGeometry x="70" y="410" width="60" height="30" as="geometry" />
        </mxCell>
        <mxCell id="Gn8FA4IbTsDNjonJkFPs-46" value="waste_produced" style="text;html=1;align=center;verticalAlign=middle;whiteSpace=wrap;rounded=0;" vertex="1" parent="1">
          <mxGeometry x="80" y="290" width="110" height="30" as="geometry" />
        </mxCell>
        <mxCell id="Gn8FA4IbTsDNjonJkFPs-48" value="vehicle" style="text;html=1;align=center;verticalAlign=middle;whiteSpace=wrap;rounded=0;" vertex="1" parent="1">
          <mxGeometry x="80" y="730" width="60" height="30" as="geometry" />
        </mxCell>
        <mxCell id="Gn8FA4IbTsDNjonJkFPs-49" value="c_status" style="whiteSpace=wrap;html=1;align=center;" vertex="1" parent="1">
          <mxGeometry x="425" y="40" width="70" height="40" as="geometry" />
        </mxCell>
        <mxCell id="Gn8FA4IbTsDNjonJkFPs-54" value="c_resolved_time" style="whiteSpace=wrap;html=1;align=center;" vertex="1" parent="1">
          <mxGeometry x="595" y="40" width="110" height="40" as="geometry" />
        </mxCell>
        <mxCell id="Gn8FA4IbTsDNjonJkFPs-55" value="c_resolved_date" style="whiteSpace=wrap;html=1;align=center;" vertex="1" parent="1">
          <mxGeometry x="495" y="40" width="100" height="40" as="geometry" />
        </mxCell>
        <mxCell id="Gn8FA4IbTsDNjonJkFPs-62" style="edgeStyle=orthogonalEdgeStyle;rounded=0;orthogonalLoop=1;jettySize=auto;html=1;exitX=0.5;exitY=1;exitDx=0;exitDy=0;entryX=0;entryY=0.5;entryDx=0;entryDy=0;" edge="1" parent="1" source="Gn8FA4IbTsDNjonJkFPs-56" target="Gn8FA4IbTsDNjonJkFPs-61">
          <mxGeometry relative="1" as="geometry">
            <mxPoint x="60" y="270" as="targetPoint" />
            <Array as="points">
              <mxPoint x="735" y="120" />
              <mxPoint x="70" y="120" />
              <mxPoint x="70" y="180" />
            </Array>
          </mxGeometry>
        </mxCell>
        <mxCell id="Gn8FA4IbTsDNjonJkFPs-56" value="user_id" style="whiteSpace=wrap;html=1;align=center;" vertex="1" parent="1">
          <mxGeometry x="705" y="40" width="60" height="40" as="geometry" />
        </mxCell>
        <mxCell id="Gn8FA4IbTsDNjonJkFPs-58" value="u_mobile" style="whiteSpace=wrap;html=1;align=center;" vertex="1" parent="1">
          <mxGeometry x="440" y="160" width="70" height="40" as="geometry" />
        </mxCell>
        <mxCell id="Gn8FA4IbTsDNjonJkFPs-59" value="address" style="whiteSpace=wrap;html=1;align=center;" vertex="1" parent="1">
          <mxGeometry x="510" y="160" width="80" height="40" as="geometry" />
        </mxCell>
        <mxCell id="Gn8FA4IbTsDNjonJkFPs-67" style="edgeStyle=orthogonalEdgeStyle;rounded=0;orthogonalLoop=1;jettySize=auto;html=1;exitX=1;exitY=0.5;exitDx=0;exitDy=0;entryX=0.75;entryY=1;entryDx=0;entryDy=0;" edge="1" parent="1" source="Gn8FA4IbTsDNjonJkFPs-60" target="Gn8FA4IbTsDNjonJkFPs-17">
          <mxGeometry relative="1" as="geometry">
            <Array as="points">
              <mxPoint x="800" y="180" />
              <mxPoint x="800" y="510" />
              <mxPoint x="160" y="510" />
            </Array>
          </mxGeometry>
        </mxCell>
        <mxCell id="Gn8FA4IbTsDNjonJkFPs-60" value="area_id" style="whiteSpace=wrap;html=1;align=center;" vertex="1" parent="1">
          <mxGeometry x="590" y="160" width="80" height="40" as="geometry" />
        </mxCell>
        <mxCell id="Gn8FA4IbTsDNjonJkFPs-61" value="user_id" style="whiteSpace=wrap;html=1;align=center;fontStyle=4" vertex="1" parent="1">
          <mxGeometry x="80" y="160" width="70" height="40" as="geometry" />
        </mxCell>
      </root>
    </mxGraphModel>
  </diagram>
</mxfile>
